#!OML:ASF E:\Mandelcareful walks\Project 1\Capture day 1\Session 1\Subject1.ASF
:FULLY-SPECIFIED
:DEGREES
626
root 3.40618 15.0848 -0.536948 517.791 -96.3921 -154.011
lowerback 26.7647 -0.817362 7.41192
upperback 11.1125 -0.195147 0.87097
thorax -2.34892 -0.292479 -3.21384
lowerneck -11.7916 8.11988 4.41109
upperneck 33.4001 12.423 -8.24489
head 14.2616 4.61175 -2.18308
rclavicle -1.59028e-015 -1.03368e-014
rhumerus 55.0433 -49.8322 -39.1351
rradius 145.525
rwrist -86.8793
rhand 49.1429 -48.1731
rfingers 7.12502
rthumb 69.3808 314.213
lclavicle -1.59028e-015 -1.03368e-014
lhumerus 32.6001 13.1159 20.1703
lradius 136.901
lwrist -19.6193
lhand -48.087 108.899
lfingers 7.12502
lthumb -20.752 -79.9885
rfemur -27.7535 -16.5749 12.9545
rtibia 61.908
rfoot -31.6111 -10.4454
rtoes -7.67255
lfemur -36.7194 8.45552 -14.7375
ltibia 90.616
lfoot -16.625 8.75602
ltoes -14.2782
627
root 2.72505 15.1088 -0.556078 524.892 -97.2411 -161.195
lowerback 26.499 -0.648798 7.18073
upperback 11.1062 -0.0200182 1.36064
thorax -2.22247 -0.218117 -2.59583
lowerneck -11.9301 7.98446 3.75857
upperneck 33.9079 12.3331 -7.98046
head 14.4428 4.4974 -1.98747
rclavicle -3.18055e-015 -4.29375e-014
rhumerus 55.8248 -47.7859 -39.7146
rradius 145.966
rwrist -85.1296
rhand 48.1434 -46.2822
rfingers 7.12502
rthumb 68.692 314.213
lclavicle -3.18055e-015 -4.29375e-014
lhumerus 31.6578 13.0484 19.7585
lradius 136.825
lwrist -19.6821
lhand -48.9553 108.776
lfingers 7.12502
lthumb -21.5861 -79.9591
rfemur -23.0022 -16.5692 13.1265
rtibia 59.4743
rfoot -32.7131 -10.8004
rtoes -7.62233
lfemur -40.6123 9.59691 -15.8459
ltibia 88.3203
lfoot -18.2543 9.21013
ltoes -11.7421
628
root 2.0045 15.218 -0.572289 530.862 -97.9756 -167.181
lowerback 26.044 -0.401999 6.97517
upperback 11.1839 0.23128 1.82439
thorax -1.90811 -0.100481 -2.04264
lowerneck -12.766 7.64439 1.54088
upperneck 35.2658 11.8892 -6.19685
head 14.8981 4.16269 -0.953784
rclavicle -2.94201e-014 -2.94201e-014
rhumerus 56.4985 -46.3959 -39.6619
rradius 146.169
rwrist -83.2958
rhand 47.4195 -44.2313
rfingers 7.12502
rthumb 68.1787 314.972
lclavicle -2.94201e-014 -2.94201e-014
lhumerus 30.804 13.438 19.2144
lradius 136.72
lwrist -20.2411
lhand -49.781 107.916
lfingers 7.12502
lthumb -22.3788 -79.1922
rfemur -17.7316 -15.9088 13.6152
rtibia 55.9722
rfoot -33.4614 -11.6748
rtoes -9.6321
lfemur -44.1854 10.1627 -16.863
ltibia 84.2583
lfoot -17.814 9.72299
ltoes -13.1617
629
root 1.26018 15.3598 -0.578636 536.137 -98.5997 -172.272
lowerback 25.3301 -0.0374953 6.76495
upperback 11.2187 0.618335 2.14852
thorax -1.51197 0.0937479 -1.67227
lowerneck -13.6054 7.09359 0.17246
upperneck 36.6431 11.2266 -5.29154
head 15.5449 3.71943 -0.444991
rclavicle -1.51076e-014 7.95139e-016
rhumerus 57.0274 -45.7237 -39.2914
rradius 146.03
rwrist -81.8894
rhand 47.5166 -42.3359
rfingers 7.12502
rthumb 68.2482 317.037
lclavicle -1.51076e-014 7.95139e-016
lhumerus 30.28 14.5487 18.5401
lradius 137.236
lwrist -18.2801
lhand -49.2201 107.416
lfingers 7.12502
lthumb -21.8404 -78.6281
rfemur -12.5069 -14.9406 14.3633
rtibia 51.8043
rfoot -33.4338 -12.8381
rtoes -12.9201
lfemur -46.5889 10.5575 -17.81
ltibia 78.9516
lfoot -17.3591 9.55585
ltoes -15.2273
630
root 0.4912 15.5192 -0.572532 539.745 -99.0568 -175.457
lowerback 24.1519 0.497517 6.28285
upperback 11.3331 1.12606 2.32704
thorax -0.809243 0.354308 -1.32496
lowerneck -14.5552 6.45658 -0.945383
upperneck 38.0896 10.4141 -4.4778
head 16.3283 3.22656 -0.0289228
rclavicle 3.18055e-015 -3.65764e-014
rhumerus 57.4171 -45.5197 -38.9177
rradius 145.872
rwrist -80.1589
rhand 48.2033 -40.1701
rfingers 7.12502
rthumb 68.7339 320.435
lclavicle 3.18055e-015 -3.65764e-014
lhumerus 29.9598 15.7106 17.4496
lradius 136.834
lwrist -19.2937
lhand -50.2646 107.366
lfingers 7.12502
lthumb -22.8431 -78.6985
rfemur -7.50094 -13.6548 15.0898
rtibia 47.2387
rfoot -31.7289 -14.1417
rtoes -14.5728
lfemur -48.2577 10.81 -18.7271
ltibia 72.6693
lfoot -16.5964 9.36269
ltoes -15.0157
631
root -0.303749 15.6839 -0.549239 542.635 -99.419 -177.75
lowerback 22.5699 1.04921 5.81301
upperback 11.468 1.64602 2.39678
thorax 0.114151 0.631858 -1.08106
lowerneck -15.4912 5.70926 -2.45529
upperneck 39.6625 9.46008 -3.3974
head 17.1937 2.64752 0.555155
rclavicle -1.59028e-014 3.18055e-015
rhumerus 57.9652 -46.0127 -38.6722
rradius 145.738
rwrist -78.4545
rhand 47.9871 -38.1994
rfingers 7.12502
rthumb 68.5821 322.011
lclavicle -1.59028e-014 3.18055e-015
lhumerus 30.0534 17.0694 16.518
lradius 136.699
lwrist -18.3212
lhand -49.5894 107.184
lfingers 7.12502
lthumb -22.195 -78.4382
rfemur -2.75325 -12.4196 15.6573
rtibia 42.6586
rfoot -27.9076 -15.4764
rtoes -15.2187
lfemur -49.3263 10.7321 -19.4487
ltibia 65.7959
lfoot -15.4357 9.41436
ltoes -12.8851
632
root -1.12025 15.8387 -0.503907 546.44 -99.4923 -180.813
lowerback 20.7785 1.53721 5.72492
upperback 11.4672 2.1744 2.24443
thorax 1.02791 0.9401 -1.26182
lowerneck -15.6862 5.05193 -3.66777
upperneck 41.0758 8.4129 -2.23714
head 17.8699 2.10743 1.09971
rclavicle -2.3059e-014 -1.43125e-014
rhumerus 58.7979 -47.3047 -39.0744
rradius 145.639
rwrist -77.3821
rhand 46.5855 -37.559
rfingers 7.12502
rthumb 67.5736 320.232
lclavicle -2.3059e-014 -1.43125e-014
lhumerus 29.9653 18.2693 15.3534
lradius 136.711
lwrist -17.8155
lhand -49.9179 106.921
lfingers 7.12502
lthumb -22.5103 -78.213
rfemur 1.41123 -11.2623 16.2213
rtibia 38.4659
rfoot -22.6522 -15.819
rtoes -15.9715
lfemur -49.807 10.5597 -19.7315
ltibia 58.6122
lfoot -11.8383 9.53027
ltoes -15.2918
